<svg width="52" height="76" viewBox="0 0 52 76" fill="none" xmlns="http://www.w3.org/2000/svg">
<path d="M26.0001 36.0367C30.873 36.0367 34.9049 31.7553 34.9049 26.581C34.9049 21.4067 30.873 17.1253 26.0001 17.1253C21.1273 17.1253 17.0954 21.4067 17.0954 26.581C17.0954 31.7553 21.1273 36.0367 26.0001 36.0367ZM26.0001 0C39.9448 0 51.0354 11.7737 51.0354 26.5842C51.0354 46.5658 26.0001 76 26.0001 76C26.0001 76 0.964844 46.5627 0.964844 26.5842C0.964844 11.7768 12.0525 0 26.0001 0Z" fill="#004084"/>
<circle cx="26.002" cy="26.8233" r="12.5176" fill="#004084"/>
<g clip-path="url(#clip0_1220_39532)">
<g clip-path="url(#clip1_1220_39532)">
<path fill-rule="evenodd" clip-rule="evenodd" d="M-25.6461 22.2222L-32.2832 41.5708H-37.3413L-43.9789 22.2222H-38.9552L-34.7548 35.339L-30.5544 22.2222H-25.6461ZM4.28406 50.3442L1.36462 57.3579C1.1924 57.766 0.997688 58.088 0.78553 58.3234C0.572853 58.5583 0.348213 58.7375 0.113564 58.8603C-0.123047 58.9809 -0.357704 59.0636 -0.591827 59.1036C-0.826454 59.1457 -1.07306 59.1657 -1.33217 59.1657C-1.60274 59.1657 -1.91725 59.1597 -2.27421 59.1477C-2.63313 59.1357 -2.87176 59.1256 -2.99406 59.1136V57.2592H-2.85978C-2.82383 57.2672 -2.76939 57.2752 -2.69551 57.2872C-2.62113 57.2993 -2.52678 57.3093 -2.41248 57.3213C-2.31861 57.3293 -2.21628 57.3378 -2.10795 57.3438C-1.99763 57.3518 -1.89726 57.3559 -1.80692 57.3559C-1.54631 57.3559 -1.29772 57.3233 -1.06509 57.2572C-0.832436 57.1926 -0.676193 57.0799 -0.598289 56.9212L-3.83626 50.3442H-1.46246L0.414589 54.4633L2.00261 50.3442H4.28406ZM12.6505 59.1177H10.4489V55.8715C10.034 55.9656 9.67311 56.0383 9.3661 56.0863C9.06158 56.1369 8.66071 56.1609 8.16747 56.1609C7.79056 56.1609 7.43961 56.1129 7.11461 56.0142C6.78962 55.9156 6.50107 55.7608 6.25048 55.5475C6.00385 55.3321 5.80915 55.0647 5.66888 54.7472C5.5266 54.4292 5.4567 54.0411 5.4567 53.5864V50.3442H7.65777V52.426C7.65777 52.7941 7.67024 53.0856 7.6962 53.2969C7.72215 53.5097 7.80056 53.7151 7.92884 53.9104C8.04716 54.0872 8.21341 54.2219 8.42805 54.3125C8.64223 54.4032 8.94325 54.4472 9.32816 54.4472C9.46643 54.4472 9.65113 54.4372 9.88578 54.4172C10.1199 54.3992 10.3066 54.3746 10.4489 54.3466V50.3442H12.6505V59.1177ZM15.1555 59.1177V50.3442H21.0748V52.0214H17.3451V53.5543H20.7857V55.2315H17.3451V57.44H21.0748V59.1177H15.1555ZM30.2848 56.3137C30.2848 56.7424 30.2025 57.1345 30.0402 57.4946C29.8775 57.8547 29.6548 58.1481 29.3743 58.3755C29.0353 58.6469 28.6724 58.8382 28.2835 58.9509C27.8926 59.0615 27.4173 59.1177 26.8582 59.1177H23.2588V50.3442H29.6229V52.0214H25.4484V53.639H26.8941C27.4193 53.639 27.8886 53.677 28.3035 53.7531C28.7188 53.8298 29.0917 53.9985 29.4207 54.2584C29.7232 54.4933 29.9419 54.7893 30.0781 55.1434C30.2165 55.4994 30.2848 55.8895 30.2848 56.3137ZM28.0229 56.3743C28.0229 56.2296 28.0069 56.0924 27.977 55.9616C27.945 55.8329 27.8766 55.7122 27.7703 55.6036C27.6639 55.4974 27.5177 55.4128 27.3335 55.3502C27.1487 55.2881 26.8941 55.256 26.5672 55.256H25.4484V57.4886H26.5672C27.0205 57.4886 27.3754 57.3919 27.634 57.1986C27.8926 57.0078 28.0229 56.7324 28.0229 56.3743ZM39.6013 59.1177H37.3997V55.2315H34.4159V59.1177H32.2143V50.3442H34.4159V53.5543H37.3997V50.3442H39.6013V59.1177ZM41.1723 59.1177L44.1297 50.3442H46.5274L49.4848 59.1177H47.2253L46.6822 57.3438H43.911L43.3698 59.1177H41.1723ZM46.1969 55.7388L45.2963 52.8282L44.3962 55.7388H46.1969ZM57.8572 59.1177H55.6676V55.8956H54.8554L52.6578 59.1177H50.0374L52.6418 55.4769C52.1067 55.246 51.6918 54.92 51.4008 54.4993C51.1102 54.0812 50.964 53.5383 50.964 52.8743C50.964 52.428 51.0618 52.0379 51.2605 51.7039C51.4572 51.3699 51.7098 51.0984 52.0143 50.8851C52.2809 50.7023 52.6039 50.5656 52.9868 50.477C53.3677 50.3883 53.805 50.3442 54.2982 50.3442H57.8572V59.1177ZM55.6676 54.3145V51.9493H54.9617C54.6207 51.9493 54.3582 51.9593 54.1739 51.9813C53.9892 52.0034 53.811 52.078 53.6363 52.2087C53.504 52.3073 53.4021 52.4361 53.3318 52.5948C53.2614 52.7536 53.2254 52.9309 53.2254 53.1236C53.2254 53.323 53.2634 53.5038 53.3377 53.663C53.4121 53.8218 53.516 53.9525 53.6488 54.0551C53.799 54.1738 53.9733 54.2459 54.1759 54.2725C54.3781 54.3005 54.6432 54.3145 54.9737 54.3145H55.6676ZM67.6668 59.2864C66.3554 59.2864 65.315 58.8883 64.5452 58.092C63.7729 57.2953 63.388 56.177 63.388 54.7327C63.388 53.341 63.7749 52.2327 64.5472 51.4039C65.321 50.5776 66.3614 50.1629 67.6728 50.1629C68.0198 50.1629 68.3348 50.183 68.6113 50.2216C68.8899 50.2616 69.1545 50.3162 69.4091 50.3863C69.6098 50.4469 69.8264 50.527 70.0611 50.6297C70.2957 50.7304 70.4859 50.819 70.6302 50.8931V52.9869H70.4075C70.3017 52.8923 70.1689 52.7821 70.0087 52.6509C69.8464 52.5202 69.6657 52.3915 69.4615 52.2668C69.2588 52.1421 69.0342 52.0354 68.7896 51.9473C68.5449 51.8606 68.2883 51.8166 68.0218 51.8166C67.7048 51.8166 67.4142 51.8667 67.1496 51.9673C66.887 52.066 66.6344 52.2407 66.3958 52.4861C66.1772 52.7095 65.9964 53.013 65.8581 53.3936C65.7199 53.7737 65.65 54.2219 65.65 54.7387C65.65 55.2841 65.7219 55.7428 65.8661 56.1129C66.0129 56.483 66.2011 56.7825 66.4377 57.0098C66.6644 57.2291 66.917 57.3879 67.1976 57.4866C67.4766 57.5852 67.7572 57.6333 68.0337 57.6333C68.3243 57.6333 68.5994 57.5852 68.8619 57.4906C69.1245 57.3959 69.3472 57.2892 69.5254 57.1726C69.7221 57.0539 69.8943 56.9312 70.0426 56.8065C70.1913 56.6818 70.3217 56.5711 70.43 56.475H70.6302V58.5342C70.4699 58.6088 70.2832 58.6935 70.073 58.7896C69.8624 58.8863 69.6437 58.9669 69.4211 59.033C69.1465 59.1156 68.8919 59.1777 68.6533 59.2223C68.4146 59.2644 68.0862 59.2864 67.6668 59.2864ZM72.626 59.1177V50.3442H78.5453V52.0214H74.8156V53.5543H78.2562V55.2315H74.8156V57.44H78.5453V59.1177H72.626ZM82.4137 59.1177V52.0214H79.8273V50.3442H87.2017V52.0214H84.6152V59.1177H82.4137ZM95.7883 56.3137C95.7883 56.7424 95.7064 57.1345 95.5437 57.4946C95.3814 57.8547 95.1588 58.1481 94.8762 58.3755C94.5392 58.6469 94.1763 58.8382 93.7854 58.9509C93.3945 59.0615 92.9193 59.1177 92.3577 59.1177H88.7987V50.3442H91.0003V53.639H92.3981C92.9113 53.639 93.3766 53.675 93.7914 53.7471C94.2063 53.8198 94.5832 53.9905 94.9241 54.2584C95.2272 54.4933 95.4453 54.7893 95.5821 55.1434C95.7204 55.4994 95.7883 55.8895 95.7883 56.3137ZM93.5268 56.3743C93.5268 56.2296 93.5108 56.0924 93.4804 55.9616C93.4484 55.8329 93.3805 55.7122 93.2742 55.6036C93.1679 55.4974 93.0216 55.4128 92.8369 55.3502C92.6527 55.2881 92.3981 55.256 92.0731 55.256H91.0003V57.4886H92.0731C92.5204 57.4886 92.8734 57.3939 93.1359 57.2026C93.3965 57.0118 93.5268 56.7364 93.5268 56.3743ZM36.3124 30.9255C36.5161 33.9097 35.4323 36.8168 33.3221 38.9336C31.4595 40.8021 28.8865 41.9579 26.045 41.9579C23.2029 41.9579 20.6304 40.8021 18.7679 38.9336C16.6572 36.8168 15.5739 33.9097 15.7776 30.9255H20.0763C20.0763 32.9036 20.3519 34.391 21.8241 35.8678C22.9044 36.951 24.3966 37.6216 26.045 37.6216C27.6934 37.6216 29.1855 36.951 30.2654 35.8678C31.7381 34.391 32.0136 32.9036 32.0136 30.9255H36.3124ZM-7.46507 28.3258C-7.46507 29.2263 -7.60634 30.0826 -7.89388 30.8989C-8.17696 31.7102 -8.58831 32.3933 -9.12347 32.9392C-9.45046 33.2762 -9.8129 33.5867 -10.2068 33.8751C-10.6002 34.1586 -11.0335 34.4025 -11.5062 34.6023C-11.984 34.7976 -12.4972 34.9573 -13.0543 35.068C-13.6109 35.1787 -14.235 35.2368 -14.9289 35.2368H-17.4669V41.5708H-22.3223V22.2222H-14.827C-13.7128 22.2222 -12.7533 22.3243 -11.944 22.5286C-11.1353 22.7325 -10.4055 23.052 -9.74649 23.4952C-9.02164 23.979 -8.45999 24.6265 -8.06163 25.4382C-7.66425 26.2455 -7.46507 27.2081 -7.46507 28.3258ZM-12.4527 28.4455C-12.4527 27.9002 -12.5811 27.4344 -12.8416 27.0393C-13.0982 26.6492 -13.4078 26.3787 -13.7707 26.232C-14.226 26.0327 -14.6638 25.917 -15.0836 25.8865C-15.4995 25.8549 -16.0656 25.8419 -16.7815 25.8419H-17.4669V31.617H-17.1309C-16.6756 31.617 -16.2423 31.6125 -15.8399 31.604C-15.4331 31.595 -15.0791 31.564 -14.7786 31.5154C-14.522 31.4708 -14.2479 31.3862 -13.9564 31.2625C-13.6688 31.1338 -13.4477 30.9961 -13.2929 30.8408C-12.9659 30.5218 -12.7448 30.1888 -12.625 29.8427C-12.5101 29.4967 -12.4527 29.031 -12.4527 28.4455ZM13.9928 41.5708H8.07611L2.70802 34.4646H0.992683V41.5708H-3.83626V22.2222H3.9241C4.99445 22.2222 5.92747 22.2888 6.72321 22.422C7.51947 22.5592 8.25333 22.8386 8.92526 23.2603C9.61521 23.704 10.1633 24.2629 10.5702 24.9415C10.9771 25.6201 11.1808 26.4849 11.1808 27.5321C11.1808 29.0134 10.8488 30.2108 10.1808 31.1338C9.51334 32.0563 8.62476 32.7884 7.50598 33.3338L13.9928 41.5708ZM6.19256 28.1305C6.19256 27.6428 6.0997 27.2261 5.91399 26.8755C5.72828 26.525 5.42326 26.2501 4.99445 26.0592C4.69341 25.9305 4.35743 25.8509 3.98601 25.8154C3.61459 25.7798 3.15481 25.7623 2.60668 25.7623H0.992683V30.9785H2.37203C3.04449 30.9785 3.61458 30.9385 4.08336 30.8544C4.55211 30.7742 4.95 30.5969 5.27699 30.326C5.587 30.0866 5.81663 29.7942 5.96692 29.4571C6.11717 29.1201 6.19256 28.6764 6.19256 28.1305ZM57.314 40.4621C56.4698 40.8081 55.3681 41.1477 54.0157 41.4777C52.6683 41.8067 51.3314 41.9699 50.0184 41.9699C46.9892 41.9699 44.5695 41.0911 42.7708 39.3353C40.9721 37.58 40.069 35.0905 40.069 31.8654C40.069 28.8271 40.9736 26.3963 42.7708 24.5689C44.571 22.739 47.0336 21.823 50.1597 21.823C51.7782 21.823 53.0871 21.9783 54.0995 22.2843C55.112 22.5907 56.1558 23.0119 57.2346 23.5397V28.0774H56.7924C56.5627 27.8956 56.2262 27.6382 55.7884 27.3057C55.3511 26.9732 54.9248 26.6887 54.5109 26.4539C54.0292 26.1804 53.466 25.939 52.8306 25.7397C52.199 25.5419 51.5261 25.4428 50.8142 25.4428C49.9875 25.4428 49.2262 25.573 48.5458 25.8329C47.8618 26.0943 47.2493 26.4904 46.7151 27.0308C46.2034 27.5486 45.8015 28.2151 45.5035 29.0134C45.2065 29.8102 45.0567 30.7386 45.0567 31.7988C45.0567 34.0659 45.6238 35.7386 46.7551 36.8158C47.8863 37.893 49.4343 38.4303 51.3978 38.4303C51.57 38.4303 51.7747 38.4248 52.0078 38.4173C52.2415 38.4088 52.4456 38.3948 52.6184 38.3773V34.5712H48.8772V30.9255H57.314V40.4621ZM80.3325 41.5708H74.4163L69.0482 34.4646H67.3323V41.5708H62.5039V22.2222H70.2642C71.3341 22.2222 72.2681 22.2878 73.0629 22.422C73.8581 22.5562 74.5959 22.8361 75.2649 23.2603C75.9563 23.699 76.503 24.2629 76.9098 24.9415C77.3167 25.6201 77.5204 26.4849 77.5204 27.5321C77.5204 29.0134 77.1884 30.2108 76.5209 31.1338C75.8535 32.0563 74.9644 32.7884 73.8456 33.3338L80.3325 41.5708ZM72.5327 28.1305C72.5327 27.6428 72.4394 27.2256 72.2541 26.8755C72.0684 26.525 71.7634 26.2466 71.3341 26.0592C71.0355 25.929 70.6961 25.8499 70.3261 25.8154C69.9557 25.7808 69.4925 25.7623 68.9463 25.7623H67.3323V30.9785H68.7122C69.3841 30.9785 69.9552 30.9355 70.423 30.8544C70.8903 30.7732 71.2867 30.5904 71.6171 30.326C71.9217 30.0826 72.1568 29.7937 72.3071 29.4571C72.4573 29.1201 72.5327 28.6764 72.5327 28.1305ZM82.7382 41.5708V22.2222H95.7913V25.9215H87.5667V29.3019H95.1543V33.0013H87.5667V37.8715H95.7913V41.5708H82.7382ZM106.574 41.9169C105.102 41.9169 103.806 41.7717 102.687 41.4867C101.571 41.2017 100.534 40.8477 99.5749 40.422V35.8222H100.013C100.981 36.643 102.043 37.276 103.205 37.7162C104.366 38.1559 105.496 38.3773 106.592 38.3773C106.866 38.3773 107.23 38.3467 107.68 38.2886C108.134 38.2295 108.496 38.1259 108.772 38.0002C109.104 37.8489 109.396 37.6481 109.625 37.3882C109.858 37.1228 109.975 36.7757 109.975 36.3455C109.975 35.8623 109.784 35.4657 109.404 35.1612C109.03 34.8602 108.572 34.6373 108.047 34.5001C107.394 34.3293 106.693 34.1621 105.946 34.0079C105.201 33.8536 104.503 33.6623 103.86 33.4359C102.365 32.9106 101.297 32.198 100.649 31.3066C100.004 30.4171 99.6807 29.2974 99.6807 27.9532C99.6807 26.1434 100.446 24.677 101.971 23.5573C103.499 22.435 105.407 21.8761 107.693 21.8761C108.843 21.8761 109.985 21.9923 111.12 22.2267C112.251 22.46 113.269 22.7765 114.167 23.1761V27.5982H113.742C113.026 26.9862 112.153 26.4704 111.124 26.0502C110.095 25.6301 109.038 25.4157 107.95 25.4157C107.529 25.4157 107.148 25.4458 106.813 25.5049C106.478 25.5639 106.123 25.6861 105.752 25.8549C105.454 25.9901 105.191 26.1944 104.974 26.4629C104.755 26.7333 104.642 27.0353 104.642 27.3718C104.642 27.8646 104.815 28.2572 105.164 28.5477C105.511 28.8357 106.19 29.1025 107.189 29.3329C107.832 29.4812 108.459 29.6199 109.059 29.7586C109.656 29.8968 110.299 30.0866 110.979 30.331C112.313 30.8118 113.309 31.4683 113.959 32.2871C114.606 33.1029 114.936 34.1856 114.936 35.5247C114.936 37.4503 114.183 38.9953 112.676 40.1646C111.174 41.33 109.139 41.9169 106.574 41.9169ZM124.928 41.9169C123.455 41.9169 122.159 41.7717 121.041 41.4867C119.924 41.2017 118.888 40.8477 117.928 40.422V35.8222H118.366C119.334 36.643 120.396 37.276 121.558 37.7162C122.72 38.1559 123.849 38.3773 124.946 38.3773C125.22 38.3773 125.584 38.3467 126.033 38.2886C126.488 38.2295 126.85 38.1259 127.125 38.0002C127.458 37.8489 127.75 37.6486 127.979 37.3882C128.212 37.1233 128.328 36.7757 128.328 36.3455C128.328 35.8623 128.137 35.4657 127.758 35.1612C127.383 34.8602 126.925 34.6373 126.4 34.5001C125.747 34.3293 125.046 34.1621 124.3 34.0079C123.554 33.8536 122.856 33.6623 122.213 33.4359C120.719 32.9106 119.65 32.1985 119.002 31.3066C118.356 30.4176 118.034 29.2974 118.034 27.9532C118.034 26.1434 118.799 24.677 120.324 23.5573C121.852 22.435 123.76 21.8761 126.046 21.8761C127.196 21.8761 128.339 21.9923 129.474 22.2267C130.605 22.46 131.622 22.7765 132.52 23.1761V27.5982H132.095C131.379 26.9862 130.506 26.4704 129.478 26.0502C128.449 25.6301 127.391 25.4157 126.303 25.4157C125.883 25.4157 125.501 25.4458 125.166 25.5049C124.831 25.5639 124.476 25.6861 124.105 25.8549C123.807 25.9901 123.544 26.1944 123.327 26.4629C123.109 26.7333 122.996 27.0353 122.996 27.3718C122.996 27.8646 123.168 28.2577 123.517 28.5477C123.864 28.8361 124.543 29.1025 125.542 29.3329C126.186 29.4812 126.813 29.6199 127.413 29.7586C128.009 29.8968 128.652 30.0866 129.332 30.331C130.667 30.8118 131.662 31.4683 132.312 32.2871C132.96 33.1029 133.29 34.1856 133.29 35.5247C133.29 37.4503 132.536 38.9953 131.03 40.1646C129.527 41.33 127.492 41.9169 124.928 41.9169Z" fill="white"/>
<path fill-rule="evenodd" clip-rule="evenodd" d="M27.9422 13.6941V20.8917H29.5816V15.5136C33.3497 16.8767 36.1359 20.3493 36.5044 24.4924H15.5853C15.9513 20.3781 18.7005 16.925 22.4287 15.5423V20.8917H24.0681V13.7087C25.3441 13.4625 26.6643 13.4579 27.9422 13.6941ZM13.7442 29.3246H38.3455V26.1369H13.7442V29.3246Z" fill="white"/>
</g>
</g>
<defs>
<clipPath id="clip0_1220_39532">
<rect width="26" height="29" fill="white" transform="translate(13 14)"/>
</clipPath>
<clipPath id="clip1_1220_39532">
<rect width="25" height="30" fill="white" transform="translate(14 13)"/>
</clipPath>
</defs>
</svg>
